<?xml version="1.0" standalone="no"?>
<!DOCTYPE svg PUBLIC "-//W3C//DTD SVG 20010904//EN"
 "http://www.w3.org/TR/2001/REC-SVG-20010904/DTD/svg10.dtd">
<svg version="1.0" xmlns="http://www.w3.org/2000/svg"
 width="600.000000pt" height="600.000000pt" viewBox="0 0 600.000000 600.000000"
 preserveAspectRatio="xMidYMid meet">
<metadata>
Created by potrace 1.14, written by Peter Selinger 2001-2017
</metadata>
<g transform="translate(0.000000,600.000000) scale(0.100000,-0.100000)"
fill="#000000" stroke="none">
<path d="M2758 5595 c-2 -1 -57 -5 -123 -8 -66 -4 -131 -9 -145 -11 -14 -3
-47 -7 -74 -11 -270 -34 -663 -178 -901 -330 -217 -138 -435 -355 -536 -530
-103 -181 -145 -275 -192 -435 -117 -391 -88 -830 76 -1170 23 -47 44 -87 47
-90 3 -3 16 -22 28 -44 33 -56 132 -187 167 -218 16 -16 25 -28 20 -28 -5 0 1
-7 13 -16 12 -8 20 -20 16 -25 -3 -5 -2 -8 3 -7 4 2 42 -30 83 -69 40 -40 77
-73 81 -73 4 0 10 -9 14 -20 3 -11 10 -19 14 -17 8 2 89 -63 144 -116 16 -15
31 -27 33 -27 3 0 23 -14 44 -31 38 -31 39 -32 22 -54 -9 -13 -20 -21 -23 -19
-3 2 -6 -3 -6 -10 0 -7 -31 -55 -69 -107 -578 -778 -670 -916 -747 -1110 -91
-231 -83 -449 20 -557 7 -7 13 -18 13 -23 0 -5 3 -8 8 -8 18 3 33 -2 28 -10
-3 -4 2 -8 12 -8 60 0 65 -2 51 -20 -13 -17 -13 -17 7 -1 11 10 32 18 46 18
14 0 41 11 61 24 19 13 39 21 43 18 4 -4 4 -2 1 4 -6 11 13 64 23 64 12 0 2
67 -16 110 -10 25 -18 48 -16 53 1 4 -1 7 -6 7 -4 0 -19 21 -32 48 -14 26 -29
50 -33 53 -5 4 -10 18 -10 32 -1 14 -5 23 -9 21 -6 -4 -12 17 -24 79 -3 22 -1
27 8 21 10 -6 11 -5 1 7 -10 12 -10 18 0 29 9 10 9 11 -1 6 -10 -6 -10 -2 0
21 7 15 17 31 23 35 5 4 6 8 2 8 -4 0 -2 6 5 14 7 7 19 11 27 8 9 -4 12 -1 7
7 -5 8 -1 14 13 18 12 3 21 9 21 12 0 7 7 9 50 13 11 1 20 7 20 13 0 5 5 3 10
-5 6 -10 10 -11 10 -3 0 9 13 11 48 7 58 -7 87 -12 87 -14 0 -1 13 -3 29 -5
16 -2 33 -10 37 -17 7 -10 9 -10 9 2 0 9 3 11 8 5 4 -5 16 -11 27 -13 11 -2
27 -6 35 -9 8 -4 18 -7 23 -8 4 -2 9 -4 12 -5 7 -3 22 -7 36 -9 5 0 7 -5 4
-11 -3 -6 1 -7 10 -4 8 4 23 0 32 -7 9 -8 19 -14 22 -14 3 0 5 -3 4 -7 -1 -3
5 -12 15 -20 15 -12 16 -11 3 5 -14 18 -5 22 23 11 9 -3 13 -11 9 -17 -3 -5
-1 -7 5 -4 15 10 43 -3 35 -16 -4 -6 -1 -7 6 -3 15 10 212 -84 204 -97 -3 -4
1 -7 8 -6 21 4 69 -23 62 -34 -3 -6 -1 -7 5 -3 10 6 136 -55 152 -73 3 -4 18
-13 35 -21 37 -19 188 -111 195 -119 3 -3 10 -7 17 -8 19 -4 103 -64 103 -74
0 -6 5 -7 10 -4 13 8 42 -14 34 -26 -3 -5 2 -6 11 -3 9 4 23 -2 35 -15 10 -12
21 -22 24 -21 13 1 66 -31 66 -41 0 -6 5 -7 10 -4 6 3 10 1 10 -4 0 -16 36
-13 50 4 7 9 15 13 17 11 3 -3 15 6 27 19 18 19 25 22 36 12 10 -9 11 -9 5 1
-8 15 24 44 39 35 5 -4 6 -1 3 4 -11 17 42 47 58 33 9 -8 15 -8 20 0 4 6 1 9
-6 8 -6 -2 -14 3 -16 10 -3 6 0 12 6 12 6 0 20 9 31 20 11 11 20 18 20 16 0
-4 9 3 81 63 20 17 44 31 53 31 10 0 15 4 11 9 -3 5 4 12 15 16 11 3 20 11 20
16 0 5 7 9 16 9 8 0 13 4 10 8 -3 5 7 15 22 23 15 8 41 26 57 41 17 16 35 28
41 28 7 0 15 8 18 17 6 15 8 15 16 3 8 -13 10 -12 10 3 0 19 16 23 22 5 3 -7
7 -5 11 6 4 10 3 15 -3 11 -6 -3 -10 -3 -10 2 1 16 48 42 69 38 12 -2 19 0 16
6 -4 5 -12 6 -18 3 -7 -4 1 5 17 20 16 15 37 28 47 29 10 1 16 4 13 8 -2 4 3
12 11 19 12 10 18 10 29 1 11 -9 16 -9 22 0 4 7 3 9 -4 5 -21 -13 -21 12 0 30
12 11 18 14 15 7 -8 -13 18 -12 30 2 4 4 2 5 -4 1 -7 -4 -13 -3 -13 3 0 16 48
44 61 35 8 -4 9 -3 5 4 -4 7 -2 12 4 12 6 0 8 5 4 12 -5 8 -2 9 9 5 10 -4 16
-2 14 6 -1 7 4 11 11 10 6 -2 12 1 12 6 0 8 104 91 114 91 3 0 19 13 37 30 18
16 37 26 42 23 6 -3 7 -1 3 5 -3 6 -2 13 4 17 5 3 10 1 10 -4 0 -6 5 -11 11
-11 5 0 7 5 4 10 -10 17 16 41 36 35 14 -5 17 -2 13 9 -8 20 9 21 25 2 14 -17
17 -30 25 -131 4 -44 9 -91 11 -105 2 -14 7 -43 10 -65 17 -125 80 -321 115
-355 24 -24 58 -79 52 -85 -4 -5 -2 -5 4 -2 6 3 17 -5 24 -18 7 -14 17 -25 21
-25 4 0 21 -14 39 -30 18 -17 59 -47 91 -67 33 -20 59 -40 59 -45 0 -5 4 -7 9
-3 5 3 15 -1 23 -8 16 -17 70 -16 76 1 2 7 8 12 13 12 6 0 7 -5 3 -12 -4 -7
-3 -8 5 -4 6 4 9 11 6 16 -3 4 3 14 12 21 14 12 16 12 9 -1 -4 -8 2 -3 14 13
12 15 26 24 31 21 5 -3 8 0 7 7 -2 6 3 14 11 17 9 3 11 0 6 -8 -5 -9 -4 -11 4
-6 6 4 9 11 6 15 -2 5 5 17 16 27 17 16 22 16 30 4 8 -11 8 -8 3 10 -3 14 -3
22 0 19 4 -4 25 11 47 32 23 22 45 36 50 33 5 -3 8 0 7 7 -2 6 3 14 11 17 8 3
11 0 7 -7 -5 -7 -1 -9 9 -4 12 4 13 8 5 13 -18 11 -1 33 21 27 11 -3 19 -1 19
4 0 5 -6 9 -12 9 -7 1 1 8 17 17 17 10 34 16 38 15 5 -1 6 1 3 6 -8 13 40 55
54 47 6 -3 9 -3 8 2 -2 5 9 21 25 36 15 15 27 24 27 20 0 -4 5 0 11 10 6 9 15
14 21 11 7 -4 8 -2 4 5 -4 7 2 15 16 20 13 6 19 10 13 10 -5 1 2 9 15 18 14
10 29 17 33 15 5 -1 6 1 4 5 -3 5 19 28 49 53 69 58 163 145 147 136 -7 -4
-13 -4 -13 1 0 4 -14 24 -31 43 -17 19 -37 45 -46 57 l-15 23 -57 -52 c-31
-28 -87 -72 -125 -97 -62 -41 -75 -46 -125 -46 -52 0 -60 3 -99 39 -24 23 -40
46 -37 53 2 8 1 12 -4 9 -12 -8 -35 50 -27 69 3 9 2 14 -3 11 -4 -3 -13 10
-18 29 -8 24 -8 37 -1 41 7 4 6 9 -1 13 -6 4 -12 28 -14 54 -2 26 -7 50 -10
53 -4 4 -2 16 4 27 6 10 7 17 1 13 -5 -3 -10 22 -11 62 -1 37 -3 76 -5 87 -2
11 4 26 13 33 15 13 15 13 0 9 -21 -7 -24 52 -3 60 7 3 11 10 8 15 -4 6 -10 5
-16 -3 -5 -9 -8 2 -6 31 2 31 7 44 16 42 8 -1 11 2 7 8 -3 6 -11 8 -16 5 -18
-11 -15 111 3 133 9 11 9 14 1 9 -17 -10 -22 4 -12 31 5 14 13 20 20 16 8 -4
9 -3 5 5 -4 6 -11 9 -16 6 -5 -3 -11 -1 -15 5 -3 5 -1 10 6 10 8 0 8 4 2 13
-14 16 -13 50 1 59 7 5 6 8 -3 8 -11 0 -11 3 0 17 12 14 12 15 1 9 -12 -7 -12
-4 -2 14 8 15 8 20 1 16 -6 -4 -11 -1 -11 8 0 8 6 17 13 19 8 4 8 6 0 6 -8 1
-12 39 -13 129 -1 70 -3 155 -4 189 -2 39 0 60 6 57 6 -4 6 2 0 13 -12 21 -11
41 2 62 6 9 5 12 -2 7 -7 -4 -10 18 -10 73 0 43 -3 85 -7 92 -6 9 -3 11 11 6
16 -6 17 -5 4 5 -8 7 -15 28 -15 45 0 27 3 32 17 27 10 -3 18 -1 18 5 0 6 -3
10 -7 10 -25 -4 -28 12 -31 184 -2 100 -4 202 -6 227 -1 25 3 51 9 59 6 9 6
13 0 9 -5 -3 -11 5 -11 18 -1 14 2 21 8 18 6 -4 5 3 -2 15 -14 27 -11 120 4
140 9 12 8 13 -3 6 -11 -6 -13 -3 -8 16 3 13 2 30 -2 38 -13 20 -2 41 17 35
12 -4 11 -1 -3 8 -25 17 -30 82 -6 73 13 -5 13 -3 -1 11 -16 16 -16 18 0 31
12 9 13 12 2 8 -11 -4 -15 4 -17 32 -2 27 1 33 7 23 6 -9 10 -10 10 -3 0 6 -4
14 -8 17 -5 3 -10 65 -11 138 -1 72 -5 136 -7 140 -3 4 1 8 8 8 8 0 9 3 3 8
-6 4 -10 61 -10 135 0 102 3 130 15 138 13 9 12 10 -3 5 -14 -4 -17 -1 -14 18
1 13 9 32 17 42 14 17 13 18 -1 6 -15 -11 -16 -7 -14 50 2 35 3 85 4 111 1 36
4 46 14 41 7 -5 6 0 -3 11 -9 11 -10 16 -2 11 6 -4 12 -2 12 3 0 6 -6 11 -12
11 -8 0 -9 3 -3 8 6 4 11 16 13 27 2 18 7 61 11 93 0 7 5 11 10 8 5 -4 7 4 3
16 -4 16 -2 19 8 13 9 -6 11 -4 5 4 -9 16 25 92 38 84 6 -4 7 -1 3 6 -14 23
124 198 146 185 5 -3 7 -1 6 4 -2 5 13 22 32 38 19 16 31 22 26 14 -4 -8 2 -4
13 9 12 13 21 20 21 17 0 -4 9 2 20 12 11 10 33 25 48 33 15 7 40 22 56 33 16
11 26 15 23 9 -4 -7 -3 -15 3 -18 6 -4 10 -3 9 2 -4 21 2 33 16 33 8 0 15 4
15 9 0 5 9 11 19 14 15 4 18 11 14 28 -3 13 -10 29 -15 36 -6 7 -4 13 4 16 8
3 6 6 -5 6 -10 1 -17 7 -15 13 3 7 1 17 -4 23 -5 5 -14 18 -21 29 -13 17 -20
14 -138 -46 -242 -124 -405 -244 -599 -441 -58 -59 -58 -59 -84 -42 -14 10
-26 21 -26 26 0 5 -3 8 -7 7 -11 -2 -73 35 -73 45 0 4 -5 7 -11 7 -5 0 -36 18
-68 39 -75 51 -132 84 -208 121 -34 16 -65 34 -68 40 -4 6 -10 8 -14 6 -4 -3
-17 3 -28 14 -12 10 -23 16 -26 13 -3 -3 -21 3 -39 13 -61 32 -83 41 -110 48
-16 3 -28 11 -28 17 0 6 -4 8 -9 5 -5 -3 -39 5 -77 19 -88 31 -196 61 -294 80
-14 3 -36 8 -50 11 -14 4 -41 8 -60 10 -19 1 -55 5 -80 8 -25 4 -90 9 -145 12
-55 3 -108 7 -117 8 -9 2 -18 3 -20 1z m-258 -599 c0 -5 7 -3 15 4 12 10 15
10 15 -1 0 -11 2 -11 10 1 9 14 14 7 11 -13 -1 -5 3 -6 9 -2 6 3 8 11 5 16 -9
13 9 11 24 -3 8 -8 11 -8 8 -2 -5 8 4 11 23 10 17 0 30 -5 30 -10 0 -4 6 -4
13 1 10 8 32 10 40 3 1 -1 22 -3 47 -5 92 -4 287 -40 300 -54 3 -3 14 -7 25
-8 26 -3 44 -8 78 -21 16 -7 35 -12 43 -12 9 0 12 -5 8 -12 -4 -7 -3 -8 5 -4
14 9 53 -2 46 -14 -3 -4 4 -6 15 -3 11 3 20 1 20 -4 0 -5 6 -10 14 -10 8 0 29
-7 48 -16 18 -8 46 -20 61 -26 15 -6 27 -14 27 -18 -1 -8 -212 -298 -234 -321
-11 -11 -20 -10 -52 2 -58 23 -203 63 -270 75 -33 6 -70 13 -84 16 -34 7 -215
7 -270 -1 -210 -29 -434 -152 -564 -310 -95 -116 -176 -295 -176 -388 0 -46 3
-56 25 -70 28 -19 70 -13 79 11 4 9 13 13 22 9 13 -5 14 -4 6 7 -9 10 -7 16 8
27 10 7 16 18 13 24 -4 5 1 7 10 3 9 -3 19 -1 23 5 4 7 3 8 -4 4 -18 -11 -14
8 6 25 9 9 27 27 39 40 42 46 79 69 103 62 12 -4 13 -3 1 5 -11 8 -10 12 6 20
15 8 23 8 32 -1 10 -9 12 -8 9 7 -2 12 4 20 15 22 26 6 40 10 62 19 11 5 45 9
76 9 31 1 55 4 52 9 -2 4 1 7 6 7 6 0 11 -6 11 -12 0 -9 4 -8 10 2 9 13 10 13
11 0 1 -8 1 -19 0 -23 -1 -5 3 -6 9 -2 6 3 8 11 4 16 -6 11 102 2 121 -9 6 -4
15 -7 20 -7 27 -2 125 -38 125 -45 0 -5 7 -7 15 -4 8 4 15 1 15 -5 0 -6 3 -10
8 -9 12 4 102 -43 102 -53 0 -5 -4 -9 -10 -9 -5 0 -9 -3 -8 -7 2 -5 -124 -181
-279 -393 -154 -212 -385 -527 -511 -700 -127 -173 -235 -319 -239 -325 -5 -5
-25 -34 -46 -62 -34 -46 -41 -51 -58 -42 -11 6 -24 20 -29 32 -5 13 -9 16 -10
7 0 -11 -6 -9 -19 7 -11 13 -22 23 -27 23 -21 0 -256 219 -248 232 3 5 0 7 -7
6 -7 -2 -18 7 -24 19 -7 13 -15 20 -18 16 -4 -3 -7 1 -7 10 0 10 -4 17 -9 17
-15 0 -111 134 -106 147 2 7 0 12 -6 10 -5 -1 -17 12 -27 28 -9 17 -19 32 -22
35 -15 15 -59 108 -53 114 3 3 2 6 -4 6 -6 0 -14 7 -17 16 -4 9 -2 13 5 8 7
-4 2 7 -11 24 -12 16 -19 35 -16 41 4 6 2 11 -4 11 -6 0 -8 5 -5 10 3 6 1 10
-6 10 -7 0 -9 3 -6 6 3 4 2 15 -4 26 -7 14 -7 23 2 34 10 12 9 13 -6 8 -15 -6
-17 -3 -13 24 2 17 1 29 -3 27 -6 -5 -17 46 -25 115 -2 19 -6 54 -8 77 -3 29
-1 41 7 39 7 -1 9 -1 4 1 -4 3 -4 10 -1 15 4 6 2 8 -3 5 -18 -12 -5 180 16
236 5 14 7 27 4 30 -3 3 -1 12 3 19 5 7 9 20 9 28 0 8 5 14 11 13 6 -1 11 4
11 12 0 8 -4 12 -7 10 -9 -6 19 78 29 85 3 3 7 14 7 25 0 11 6 19 13 17 7 -1
10 2 6 8 -3 5 0 20 7 32 12 23 14 29 17 49 0 5 5 7 11 4 5 -3 11 -1 11 4 1 6
2 17 3 24 1 6 7 11 14 10 6 -2 9 4 6 12 -4 8 -1 15 6 15 6 0 9 4 6 8 -8 13 24
53 36 46 7 -4 8 -2 4 4 -8 13 23 72 37 72 4 0 5 -5 1 -11 -5 -8 -1 -8 14 0 12
6 24 17 28 24 5 8 2 7 -9 -2 -10 -8 -21 -10 -25 -6 -4 4 -1 10 6 12 6 3 12 9
12 14 0 12 90 104 91 93 0 -5 5 2 10 15 6 14 15 21 24 18 9 -4 12 -1 8 9 -7
20 7 18 24 -3 13 -16 13 -16 4 4 -12 23 0 40 19 28 5 -3 7 0 4 8 -3 8 0 18 7
23 8 5 10 3 5 -7 -4 -8 1 -5 11 6 42 46 62 58 77 46 10 -8 16 -9 21 -1 4 6 2
9 -3 8 -19 -6 -14 17 6 27 11 6 26 16 33 22 17 13 88 53 95 53 3 0 2 -6 -2
-12 -4 -8 -3 -10 2 -5 5 5 9 14 9 20 1 7 6 11 13 9 7 -1 12 2 12 8 0 5 6 10
13 10 7 0 29 9 50 20 20 11 37 17 37 13 0 -5 4 -3 8 2 4 6 19 16 34 22 21 9
28 9 32 0 2 -7 5 -4 5 7 1 12 6 16 16 12 8 -3 15 -1 15 4 0 4 15 12 33 15 17
4 38 12 45 17 6 6 12 7 12 3 0 -4 6 -2 13 4 8 6 30 12 50 13 20 2 37 6 37 9 0
11 128 32 141 23 8 -4 10 -3 5 4 -5 8 1 12 16 13 13 0 32 2 43 5 11 2 44 6 72
7 29 2 55 5 57 8 8 8 56 4 56 -5z m1142 -328 c8 -7 23 -18 33 -25 11 -6 19
-15 18 -20 -1 -5 4 -10 11 -10 22 0 75 -47 71 -61 -3 -7 0 -10 5 -7 11 7 86
-74 82 -87 -1 -5 2 -7 7 -4 5 4 12 3 15 -2 2 -4 7 -120 11 -257 3 -138 8 -338
10 -445 3 -107 7 -296 10 -420 16 -648 16 -647 -3 -652 -35 -8 -1708 -2 -1721
6 -8 5 -12 5 -9 0 4 -5 -11 -9 -33 -9 -22 0 -39 5 -39 11 0 14 25 36 32 29 3
-3 11 3 19 12 13 16 12 17 -3 4 -12 -9 -18 -10 -18 -2 0 6 7 14 15 17 8 4 15
10 15 14 0 19 123 179 133 173 6 -4 8 0 5 8 -8 20 17 53 33 43 8 -4 10 -3 5 4
-7 12 33 75 63 100 8 6 11 12 6 12 -4 0 4 11 19 25 14 13 26 27 26 30 0 3 0 9
0 13 0 4 15 24 34 44 19 20 32 39 29 42 -4 3 -1 6 5 6 6 0 13 8 16 18 3 9 20
32 36 50 17 17 29 32 26 32 -3 0 2 9 11 19 9 11 21 17 26 14 6 -3 7 -1 3 6
-10 15 13 43 27 34 6 -3 7 -1 3 6 -9 14 41 84 55 76 5 -3 6 1 3 9 -3 8 4 24
15 35 12 12 18 21 14 21 -3 0 4 11 17 25 12 13 27 22 31 19 5 -3 7 1 4 8 -3 7
-1 19 4 27 8 12 12 12 24 2 11 -8 17 -9 22 -1 4 6 1 9 -7 8 -15 -3 -12 30 4
50 16 19 23 5 7 -15 -13 -16 -12 -17 4 -4 10 8 15 21 12 29 -7 18 23 54 37 46
6 -4 7 2 3 15 -8 26 2 27 29 4 21 -18 21 -18 3 3 -17 20 -16 22 9 60 15 21 29
41 33 44 3 3 24 31 45 62 21 32 43 55 48 52 5 -3 7 -1 6 4 -2 6 2 9 7 9 6 -1
9 -6 7 -10 -1 -5 3 -5 9 -2 8 5 8 10 0 18 -16 16 -13 30 5 23 14 -5 15 -4 5 7
-9 11 -3 23 30 57 23 24 36 40 28 36 -8 -4 -6 -1 4 7 9 8 17 20 17 27 0 7 7
10 14 7 10 -4 13 -1 10 8 -6 14 21 50 37 50 4 0 11 4 16 9 5 5 3 6 -4 2 -7 -4
-13 -2 -13 4 0 6 7 13 15 16 8 4 13 10 10 14 -2 4 4 15 15 25 11 10 20 24 20
32 0 7 4 13 10 13 5 0 17 14 25 31 10 18 22 28 29 26 8 -3 13 0 13 6 -1 31 4
47 14 47 6 0 9 -6 6 -14 -6 -15 17 -16 30 -1 4 4 3 5 -3 2 -7 -4 -14 0 -18 8
-7 18 3 45 16 45 5 0 6 -4 3 -10 -10 -16 1 -11 16 7 10 11 10 14 2 9 -7 -4
-13 -3 -13 2 0 14 27 34 32 25 3 -4 3 -2 1 5 -3 13 21 52 56 94 8 9 19 14 24
11 6 -4 7 -1 2 7 -4 7 -2 16 6 20 13 9 37 0 61 -22z m-1908 -2510 c-6 -10 -5
-10 7 -1 10 8 54 12 124 12 75 0 112 -4 117 -12 6 -9 8 -9 8 1 0 8 18 12 55
12 37 0 55 -4 56 -12 0 -10 2 -10 6 0 3 7 25 12 59 12 41 0 53 -3 48 -12 -6
-10 -4 -10 7 0 7 6 37 12 66 12 35 0 53 -4 54 -12 0 -10 2 -10 6 0 3 7 25 12
59 12 42 0 53 -3 48 -12 -6 -10 -5 -10 8 0 12 10 173 12 748 12 634 0 731 -2
726 -15 -3 -8 -2 -17 3 -19 4 -3 9 -83 11 -178 1 -95 3 -215 5 -266 l2 -93
-171 -127 c-94 -70 -201 -149 -237 -177 -37 -27 -80 -59 -95 -70 -15 -11 -88
-65 -163 -121 l-135 -100 -76 32 c-79 34 -365 157 -475 205 -22 9 -330 142
-385 166 -19 8 -51 22 -70 30 -106 46 -238 101 -257 107 -13 4 -23 11 -23 15
0 4 -6 8 -12 8 -12 0 -168 65 -283 118 -27 12 -73 33 -102 45 -46 20 -50 25
-40 41 7 11 15 19 20 19 4 0 6 -4 3 -9 -4 -5 4 -6 16 -3 19 5 20 7 6 10 -19 4
-25 22 -8 22 6 0 10 7 10 16 0 8 5 12 10 9 6 -3 10 1 10 10 0 10 5 13 12 9 7
-4 8 -3 4 4 -6 10 59 112 71 112 3 0 -1 -8 -8 -17 -13 -16 -12 -17 3 -4 10 7
15 17 12 23 -8 12 16 39 27 32 5 -3 9 -2 8 3 -5 27 32 79 46 65 5 -4 5 -2 1 5
-7 12 42 92 57 93 5 0 5 -6 1 -12z m2221 -786 c-8 -8 -25 10 -19 20 4 6 9 5
15 -3 4 -7 6 -15 4 -17z"/>
<path d="M1609 4723 c-13 -16 -12 -17 4 -4 9 7 17 15 17 17 0 8 -8 3 -21 -13z"/>
<path d="M1636 4698 c3 -5 10 -6 15 -3 13 9 11 12 -6 12 -8 0 -12 -4 -9 -9z"/>
<path d="M1550 4686 c0 -2 7 -7 16 -10 8 -3 12 -2 9 4 -6 10 -25 14 -25 6z"/>
<path d="M1495 4631 c-3 -5 -2 -12 3 -15 5 -3 9 1 9 9 0 17 -3 19 -12 6z"/>
<path d="M1306 4438 c3 -5 10 -6 15 -3 13 9 11 12 -6 12 -8 0 -12 -4 -9 -9z"/>
<path d="M1196 4347 c3 -10 9 -15 12 -12 3 3 0 11 -7 18 -10 9 -11 8 -5 -6z"/>
<path d="M1075 4100 c3 -5 8 -10 11 -10 2 0 4 5 4 10 0 6 -5 10 -11 10 -5 0
-7 -4 -4 -10z"/>
<path d="M2285 4079 c-3 -4 2 -6 10 -5 21 3 28 13 10 13 -9 0 -18 -4 -20 -8z"/>
<path d="M2596 4047 c3 -10 9 -15 12 -12 3 3 0 11 -7 18 -10 9 -11 8 -5 -6z"/>
<path d="M2070 3978 c0 -4 4 -8 9 -8 6 0 12 4 15 8 3 5 -1 9 -9 9 -8 0 -15 -4
-15 -9z"/>
<path d="M2027 3947 c-3 -8 1 -14 8 -14 7 0 11 6 8 14 -3 7 -6 13 -8 13 -2 0
-5 -6 -8 -13z"/>
<path d="M1993 3885 c0 -8 4 -12 9 -9 5 3 6 10 3 15 -9 13 -12 11 -12 -6z"/>
<path d="M976 3833 c-6 -14 -5 -15 5 -6 7 7 10 15 7 18 -3 3 -9 -2 -12 -12z"/>
<path d="M3516 4593 c-6 -14 -5 -15 5 -6 7 7 10 15 7 18 -3 3 -9 -2 -12 -12z"/>
<path d="M3375 4401 c-3 -5 0 -13 6 -17 7 -4 9 -3 5 4 -3 5 0 13 6 15 9 4 10
6 1 6 -6 1 -14 -3 -18 -8z"/>
<path d="M3356 4355 c-11 -8 -15 -15 -9 -15 6 0 16 7 23 15 16 19 11 19 -14 0z"/>
<path d="M3315 4320 c-3 -5 -1 -10 4 -10 6 0 11 5 11 10 0 6 -2 10 -4 10 -3 0
-8 -4 -11 -10z"/>
<path d="M3225 4160 c-10 -11 -16 -22 -14 -24 2 -2 12 7 22 20 22 29 17 32 -8
4z"/>
<path d="M3148 4083 c6 -2 9 -10 6 -15 -4 -7 -2 -8 5 -4 13 9 5 26 -12 25 -9
0 -8 -2 1 -6z"/>
<path d="M3035 3941 c-3 -5 -2 -12 3 -15 5 -3 9 1 9 9 0 17 -3 19 -12 6z"/>
<path d="M3015 3860 c3 -5 8 -10 11 -10 2 0 4 5 4 10 0 6 -5 10 -11 10 -5 0
-7 -4 -4 -10z"/>
<path d="M2775 3580 c3 -5 8 -10 11 -10 2 0 4 5 4 10 0 6 -5 10 -11 10 -5 0
-7 -4 -4 -10z"/>
<path d="M2733 3485 c0 -8 4 -12 9 -9 5 3 6 10 3 15 -9 13 -12 11 -12 -6z"/>
<path d="M2625 3360 c-3 -6 1 -7 9 -4 18 7 21 14 7 14 -6 0 -13 -4 -16 -10z"/>
<path d="M2606 3325 c-11 -8 -15 -15 -9 -15 6 0 16 7 23 15 16 19 11 19 -14 0z"/>
<path d="M2553 3265 c0 -8 4 -12 9 -9 5 3 6 10 3 15 -9 13 -12 11 -12 -6z"/>
<path d="M2480 3180 c-9 -6 -10 -10 -3 -10 6 0 15 5 18 10 8 12 4 12 -15 0z"/>
<path d="M2394 3048 l-19 -23 23 19 c21 18 27 26 19 26 -2 0 -12 -10 -23 -22z"/>
<path d="M2320 2959 c0 -5 5 -7 10 -4 6 3 10 8 10 11 0 2 -4 4 -10 4 -5 0 -10
-5 -10 -11z"/>
<path d="M1755 2151 c-3 -5 -2 -12 3 -15 5 -3 9 1 9 9 0 17 -3 19 -12 6z"/>
<path d="M1835 2140 c3 -5 8 -10 11 -10 2 0 4 5 4 10 0 6 -5 10 -11 10 -5 0
-7 -4 -4 -10z"/>
<path d="M1890 2146 c0 -2 7 -7 16 -10 8 -3 12 -2 9 4 -6 10 -25 14 -25 6z"/>
<path d="M2010 2146 c0 -2 7 -7 16 -10 8 -3 12 -2 9 4 -6 10 -25 14 -25 6z"/>
<path d="M2250 2146 c0 -2 7 -7 16 -10 8 -3 12 -2 9 4 -6 10 -25 14 -25 6z"/>
<path d="M2490 2146 c0 -2 7 -7 16 -10 8 -3 12 -2 9 4 -6 10 -25 14 -25 6z"/>
<path d="M1719 2113 c-13 -16 -12 -17 4 -4 16 13 21 21 13 21 -2 0 -10 -8 -17
-17z"/>
<path d="M1650 2039 c0 -5 5 -7 10 -4 6 3 10 8 10 11 0 2 -4 4 -10 4 -5 0 -10
-5 -10 -11z"/>
<path d="M1533 1875 c0 -8 4 -12 9 -9 5 3 6 10 3 15 -9 13 -12 11 -12 -6z"/>
<path d="M5040 5320 c-9 -6 -10 -10 -3 -10 6 0 15 5 18 10 8 12 4 12 -15 0z"/>
<path d="M4916 5233 c-6 -14 -5 -15 5 -6 7 7 10 15 7 18 -3 3 -9 -2 -12 -12z"/>
<path d="M4836 5174 c-23 -23 -20 -30 4 -9 11 10 20 20 20 22 0 7 -9 2 -24
-13z"/>
<path d="M4754 5068 c-19 -23 -19 -23 2 -5 11 9 24 14 29 10 4 -5 5 -2 1 5 -9
16 -10 16 -32 -10z"/>
<path d="M4696 4958 c3 -5 10 -6 15 -3 13 9 11 12 -6 12 -8 0 -12 -4 -9 -9z"/>
<path d="M4639 4593 c-13 -16 -12 -17 4 -4 16 13 21 21 13 21 -2 0 -10 -8 -17
-17z"/>
<path d="M4656 4182 c-3 -5 1 -9 9 -9 8 0 12 4 9 9 -3 4 -7 8 -9 8 -2 0 -6 -4
-9 -8z"/>
<path d="M4655 4020 c-3 -5 -1 -10 4 -10 6 0 11 5 11 10 0 6 -2 10 -4 10 -3 0
-8 -4 -11 -10z"/>
<path d="M4655 3941 c-3 -5 -2 -12 3 -15 5 -3 9 1 9 9 0 17 -3 19 -12 6z"/>
<path d="M4653 3525 c0 -8 4 -12 9 -9 5 3 6 10 3 15 -9 13 -12 11 -12 -6z"/>
<path d="M4675 3020 c3 -5 8 -10 11 -10 2 0 4 5 4 10 0 6 -5 10 -11 10 -5 0
-7 -4 -4 -10z"/>
<path d="M4695 2420 c-3 -5 -1 -10 4 -10 6 0 11 5 11 10 0 6 -2 10 -4 10 -3 0
-8 -4 -11 -10z"/>
<path d="M4690 1700 c0 -5 5 -10 11 -10 5 0 7 5 4 10 -3 6 -8 10 -11 10 -2 0
-4 -4 -4 -10z"/>
<path d="M3875 1340 c-3 -5 -1 -10 4 -10 6 0 11 5 11 10 0 6 -2 10 -4 10 -3 0
-8 -4 -11 -10z"/>
<path d="M3816 1273 c-6 -14 -5 -15 5 -6 7 7 10 15 7 18 -3 3 -9 -2 -12 -12z"/>
<path d="M3710 1199 c0 -5 5 -7 10 -4 6 3 10 8 10 11 0 2 -4 4 -10 4 -5 0 -10
-5 -10 -11z"/>
<path d="M3680 1180 c-8 -5 -12 -12 -9 -15 4 -3 12 1 19 10 14 17 11 19 -10 5z"/>
<path d="M5295 1091 c-3 -5 -2 -12 3 -15 5 -3 9 1 9 9 0 17 -3 19 -12 6z"/>
<path d="M3559 1073 c-13 -16 -12 -17 4 -4 16 13 21 21 13 21 -2 0 -10 -8 -17
-17z"/>
<path d="M966 1038 c3 -5 10 -6 15 -3 13 9 11 12 -6 12 -8 0 -12 -4 -9 -9z"/>
<path d="M1436 1033 c-6 -14 -5 -15 5 -6 7 7 10 15 7 18 -3 3 -9 -2 -12 -12z"/>
<path d="M5234 1026 c1 -8 5 -18 8 -22 4 -3 5 1 4 10 -1 8 -5 18 -8 22 -4 3
-5 -1 -4 -10z"/>
<path d="M3410 977 c0 -2 6 -10 14 -16 11 -9 16 -9 22 1 4 7 4 10 -1 6 -4 -4
-14 -3 -22 3 -7 6 -13 9 -13 6z"/>
<path d="M5151 967 c-8 -10 -7 -14 2 -14 8 0 14 6 14 14 0 7 -1 13 -2 13 -2 0
-8 -6 -14 -13z"/>
<path d="M3395 951 c-3 -5 -2 -12 3 -15 5 -3 9 1 9 9 0 17 -3 19 -12 6z"/>
<path d="M1713 925 c0 -8 4 -12 9 -9 5 3 6 10 3 15 -9 13 -12 11 -12 -6z"/>
<path d="M5115 920 c3 -5 8 -10 11 -10 2 0 4 5 4 10 0 6 -5 10 -11 10 -5 0 -7
-4 -4 -10z"/>
<path d="M3240 840 c-9 -6 -10 -10 -3 -10 6 0 15 5 18 10 8 12 4 12 -15 0z"/>
<path d="M3190 786 c0 -2 7 -7 16 -10 8 -3 12 -2 9 4 -6 10 -25 14 -25 6z"/>
<path d="M3115 740 c-3 -5 -1 -10 4 -10 6 0 11 5 11 10 0 6 -2 10 -4 10 -3 0
-8 -4 -11 -10z"/>
<path d="M4875 720 c-3 -5 -1 -10 4 -10 6 0 11 5 11 10 0 6 -2 10 -4 10 -3 0
-8 -4 -11 -10z"/>
<path d="M4770 619 c0 -5 5 -7 10 -4 6 3 10 8 10 11 0 2 -4 4 -10 4 -5 0 -10
-5 -10 -11z"/>
<path d="M2870 565 c0 -7 30 -13 34 -7 3 4 -4 9 -15 9 -10 1 -19 0 -19 -2z"/>
<path d="M2816 522 c-3 -5 1 -9 9 -9 8 0 12 4 9 9 -3 4 -7 8 -9 8 -2 0 -6 -4
-9 -8z"/>
<path d="M2760 479 c0 -5 5 -7 10 -4 6 3 10 8 10 11 0 2 -4 4 -10 4 -5 0 -10
-5 -10 -11z"/>
<path d="M4630 479 c0 -5 5 -7 10 -4 6 3 10 8 10 11 0 2 -4 4 -10 4 -5 0 -10
-5 -10 -11z"/>
</g>
</svg>
